<svg xmlns="http://www.w3.org/2000/svg" viewBox="0 0 180 180">
  <defs>
    <linearGradient id="bg" x1="0%" y1="0%" x2="100%" y2="100%">
      <stop offset="0%" stop-color="#e91e8c"/>
      <stop offset="50%" stop-color="#ff6b9d"/>
      <stop offset="100%" stop-color="#ffb347"/>
    </linearGradient>
  </defs>
  <rect width="180" height="180" rx="40" fill="url(#bg)"/>
  <path d="M90 140 C 90 140, 40 110, 40 70 C 40 50, 56 40, 72 40 C 81 40, 87 46, 90 52 C 93 46, 99 40, 108 40 C 124 40, 140 50, 140 70 C 140 110, 90 140, 90 140 Z" fill="white"/>
  <path d="M90 70 L 72 88 L 72 104 L 84 104 L 84 92 L 96 92 L 96 104 L 108 104 L 108 88 Z" fill="#e91e8c"/>
</svg>
